<?xml version="1.0" encoding="UTF-8"?>
<svg width="100px" height="114px" viewBox="0 0 100 114" version="1.1" xmlns="http://www.w3.org/2000/svg" xmlns:xlink="http://www.w3.org/1999/xlink">
    <!-- Generator: Sketch 3.6.1 (26313) - http://www.bohemiancoding.com/sketch -->
    <title>noun_Spiderweb_674063</title>
    <desc>Created with Sketch.</desc>
    <defs>
        <filter x="-50%" y="-50%" width="200%" height="200%" filterUnits="objectBoundingBox" id="filter-1">
            <feOffset dx="0" dy="0" in="SourceAlpha" result="shadowOffsetOuter1"></feOffset>
            <feGaussianBlur stdDeviation="3" in="shadowOffsetOuter1" result="shadowBlurOuter1"></feGaussianBlur>
            <feColorMatrix values="0 0 0 0 0.281063988   0 0 0 0 0.246402313   0 0 0 0 0.246402313  0 0 0 0.35 0" in="shadowBlurOuter1" type="matrix" result="shadowMatrixOuter1"></feColorMatrix>
            <feMerge>
                <feMergeNode in="shadowMatrixOuter1"></feMergeNode>
                <feMergeNode in="SourceGraphic"></feMergeNode>
            </feMerge>
        </filter>
        <rect id="path-2" x="0" y="0" width="89" height="102"></rect>
    </defs>
    <g id="Page-1" stroke="none" stroke-width="1" fill="none" fill-rule="evenodd" filter="url(#filter-1)">
        <g id="noun_Spiderweb_674063" transform="translate(6.000000, 6.000000)">
            <mask id="mask-3" fill="white">
                <use xlink:href="#path-2"></use>
            </mask>
            <use id="Mask" xlink:href="#path-2"></use>
            <g mask="url(#mask-3)" id="Group">
                <g transform="translate(-0.499299, 0.000000)">
                    <g>
                        <path id="Shape" fill="#000000" d="M44.0534843,81.8544216 C44.1818784,81.982824 44.4386666,81.982824 44.4386666,81.982824 C44.3102725,81.982824 44.1818784,81.982824 44.0534843,81.8544216 L44.0534843,81.8544216 Z"></path>
                        <path id="Shape" fill="#000000" d="M66.7155841,89.2094126 C66.7155841,89.337815 66.5875496,89.4662174 66.4595151,89.4662174 C66.2034462,89.5946198 66.0754117,89.5946198 65.8193428,89.5946198 C66.2034462,89.5946198 66.4595151,89.337815 66.7155841,89.2094126 L66.7155841,89.2094126 Z"></path>
                        <path id="Shape" fill="#000000" d="M23.0558325,89.5958848 C22.927798,89.5958848 22.6717291,89.5958848 22.5436947,89.4674824 L22.5436947,89.4674824 C22.6717291,89.5958848 22.927798,89.5958848 23.0558325,89.5958848 L23.0558325,89.5958848 Z"></path>
                        <path id="Shape" fill="#000000" d="M44.3098229,52.8215623 C44.1814288,52.8215623 44.1814288,52.8215623 44.3098229,52.8215623 L44.3098229,52.8215623 L44.3098229,52.8215623 L44.3098229,52.8215623 Z"></path>
                        <path d="M78.3667201,68.9509285 L88.2253737,51.6602479 C88.4814426,51.4021781 88.4814426,51.0150733 88.2253737,50.6279685 L77.9826167,32.6921132 L87.9693047,26.8855414 C88.4814426,26.4984366 88.6094771,25.8532619 88.3534081,25.3371222 C87.9693047,24.8209825 87.3291324,24.6919476 86.8169946,24.9500174 L76.8303066,30.7565893 L66.7155841,13.2078388 C66.5875496,12.9497689 66.2034462,12.6916991 65.8193428,12.6916991 L45.5898978,12.6916991 L45.5898978,1.20759029 C45.5898978,0.56241564 45.07776,0.0462759198 44.4375877,0.0462759198 C43.7974153,0.0462759198 43.2852775,0.56241564 43.2852775,1.20759029 L43.2852775,12.6916991 L23.0558325,12.6916991 C22.927798,12.6916991 22.6717291,12.6916991 22.5436947,12.820734 C22.4156602,12.9497689 22.2876257,12.9497689 22.1595913,13.2078388 L12.1729032,30.7565893 L2.44228411,24.8209825 C1.93014626,24.5629126 1.16193949,24.6919476 0.905870567,25.2080873 C0.649801643,25.724227 0.777836105,26.4984366 1.28997395,26.7565064 L11.0205931,32.8211481 L0.777836105,50.6279685 C0.521767181,50.8860383 0.521767181,51.2731431 0.777836105,51.6602479 L10.7645241,69.2089984 L0.521767181,75.1446052 C0.0096293328,75.53171 -0.118405129,76.1768846 0.137663795,76.6930244 C0.265698257,76.9510942 0.649801643,77.2091641 1.03390503,77.2091641 C1.16193949,77.2091641 1.41800842,77.0801291 1.67407734,77.0801291 L11.9168343,71.1445224 L22.1595913,89.0803776 C22.2876257,89.2094126 22.2876257,89.2094126 22.4156602,89.3384475 C22.6717291,89.4674824 22.927798,89.4674824 23.0558325,89.4674824 L43.2852782,89.2094139 L43.2852782,100.786016 C43.2852782,100.786016 43.6532092,101.816867 44.437587,101.816867 C45.2219648,101.816867 45.5898991,100.786014 45.5898991,100.786014 L45.5898991,89.430942 L65.6913084,89.5965174 C66.0754117,89.5965174 66.3314807,89.3384475 66.5875496,89.2094126 L77.0863755,70.8864525 L87.201098,77.2091641 C87.3291324,77.338199 87.5852014,77.338199 87.7132358,77.338199 C88.0973392,77.338199 88.4814426,77.0801291 88.7375115,76.8220593 C89.1216149,76.3059196 88.9935804,75.53171 88.4814426,75.2736401 L78.3667201,68.9509285 Z M85.280581,49.9827938 L71.0687558,49.9827938 L71.0687558,36.3050913 C71.0687558,35.9179865 70.9407213,35.6599166 70.5566179,35.4018467 L58.5213785,28.4339605 L65.5632739,15.6595025 L85.280581,49.9827938 L85.280581,49.9827938 Z M54.0401723,36.692196 L57.6251372,30.3694845 L68.2519976,36.5631611 L57.6251372,42.8858727 L54.0401723,36.692196 L54.0401723,36.692196 Z M59.8017231,51.1441082 L56.4728271,57.079715 L46.8702424,51.7892829 L56.8569305,45.8536761 L59.8017231,51.1441082 L59.8017231,51.1441082 Z M52.1196554,35.5308817 L45.5898978,35.5308817 L45.5898978,23.2725633 L55.7046203,29.2081701 L52.1196554,35.5308817 L52.1196554,35.5308817 Z M52.1196554,37.7244755 L55.7046203,43.9181521 L45.5898978,49.8537589 L45.5898978,37.7244755 L52.1196554,37.7244755 L52.1196554,37.7244755 Z M55.3205169,58.886204 L52.1196554,64.5637409 L45.5898978,64.5637409 L45.5898978,53.5957719 L55.3205169,58.886204 L55.3205169,58.886204 Z M57.3690683,60.0475184 L68.2519976,65.8540902 L57.7531717,71.9187319 L54.1682068,65.5960204 L57.3690683,60.0475184 L57.3690683,60.0475184 Z M58.393344,58.1119944 L61.72224,52.3054226 L68.8921699,52.3054226 L68.8921699,63.7895313 L58.393344,58.1119944 L58.393344,58.1119944 Z M61.72224,49.9827938 L58.6494129,44.6923617 L68.8921699,38.62772 L68.8921699,49.9827938 L61.72224,49.9827938 L61.72224,49.9827938 Z M63.642757,14.8852929 L56.728896,27.4016811 L44.9497255,20.5628298 C44.6936566,20.3047599 44.3095532,20.3047599 43.9254498,20.5628298 L32.1462793,27.4016811 L32.1462793,27.4016811 L24.9763494,14.8852929 L63.642757,14.8852929 L63.642757,14.8852929 Z M63.8561477,87.4029235 L56.9422868,74.8865353 L45.1631163,81.7253866 C44.9070474,81.9834565 44.522944,81.9834565 44.1388406,81.7253866 L32.3596701,74.8865353 L32.3596701,74.8865353 L25.1897402,87.4029235 L63.8561477,87.4029235 L63.8561477,87.4029235 Z M31.3780725,42.7568378 L20.6231777,36.4341262 L31.2500381,30.2404495 L34.835003,36.5631611 L31.3780725,42.7568378 L31.3780725,42.7568378 Z M32.1462793,45.8536761 L42.2610018,51.9183178 L32.5303827,57.3377848 L29.0734522,51.1441082 L32.1462793,45.8536761 L32.1462793,45.8536761 Z M30.2257624,44.6923617 L27.2809697,49.9827938 L19.9830054,49.9827938 L19.9830054,38.62772 L30.2257624,44.6923617 L30.2257624,44.6923617 Z M27.2809697,52.3054226 L30.6098658,58.2410294 L19.9830054,64.1766361 L19.9830054,52.3054226 L27.2809697,52.3054226 L27.2809697,52.3054226 Z M31.7621759,60.1765533 L34.835003,65.5960204 L31.2500381,71.9187319 L21.1353156,66.1121601 L31.7621759,60.1765533 L31.7621759,60.1765533 Z M36.8835544,66.7573347 L43.2852775,66.7573347 L43.2852775,79.0156531 L33.170555,73.2090812 L36.8835544,66.7573347 L36.8835544,66.7573347 Z M36.7555199,64.5637409 L33.6826928,59.1442739 L43.2852775,53.8538417 L43.2852775,64.5637409 L36.7555199,64.5637409 L36.7555199,64.5637409 Z M33.170555,43.9181521 L36.7555199,37.7244755 L43.2852775,37.7244755 L43.2852775,49.8537589 L33.170555,43.9181521 L33.170555,43.9181521 Z M36.8835544,35.5308817 L33.170555,29.2081701 L43.2852775,23.4015983 L43.2852775,35.6599166 L36.8835544,35.6599166 L36.8835544,35.5308817 Z M23.0558325,15.9175723 L30.2257624,28.4339605 L18.3185574,35.4018467 C18.0624885,35.5308817 17.8064196,35.9179865 17.8064196,36.3050913 L17.8064196,49.9827938 L3.59459427,49.9827938 L23.0558325,15.9175723 L23.0558325,15.9175723 Z M3.59459427,52.3054226 L17.8064196,52.3054226 L17.8064196,66.1121601 C17.8064196,66.241195 17.8064196,66.4992649 17.934454,66.6282998 C17.934454,66.7573347 18.1905229,66.8863697 18.3185574,67.0154046 L18.3185574,67.0154046 L30.2257624,73.8542559 L23.183867,86.2416092 L3.59459427,52.3054226 L3.59459427,52.3054226 Z M45.5898978,79.0156531 L45.5898978,66.7573347 L52.1196554,66.7573347 L55.7046203,73.0800463 L45.5898978,79.0156531 L45.5898978,79.0156531 Z M65.8193428,86.2416092 L58.7774474,73.8542559 L70.5566179,67.0154046 C70.8126868,66.8863697 71.0687558,66.4992649 71.0687558,66.1121601 L71.0687558,52.3054226 L85.280581,52.3054226 L65.8193428,86.2416092 L65.8193428,86.2416092 Z" id="Shape" fill="#FFFFFF"></path>
                        <path id="Shape" fill="#000000" d="M44.3098229,52.8215623 C44.1814288,52.8215623 44.1814288,52.8215623 44.3098229,52.8215623 L44.3098229,52.8215623 L44.3098229,52.8215623 L44.3098229,52.8215623 Z"></path>
                    </g>
                </g>
            </g>
        </g>
    </g>
</svg>